<?xml version="1.0" encoding="UTF-8"?>
<svg id="Layer_2" data-name="Layer 2" xmlns="http://www.w3.org/2000/svg" viewBox="0 0 201.6 117.79">
  <defs>
    <style>
      .cls-1 {
        fill: #5aab56;
      }

      .cls-2 {
        fill: #fff;
      }
    </style>
  </defs>
  <g id="Layer_1-2" data-name="Layer 1">
    <g>
      <path class="cls-2" d="M81.64,92.19c-.61,0-1.24-.17-1.81-.48-.69-.38-2.39-1.31.49-9.36l1.56-4.39c5.05-14.19,9.43-26.51,13.89-37.24-19.07-9.07-34.93-13.49-48.47-13.49h-.3c-.76,0-1.4-.51-1.56-1.24-.17-.73.19-1.47.87-1.79,5.98-2.86,11.63-5.55,18.08-7.79,3.43-1.19,7.01-1.79,10.65-1.79,5.69,0,11.33,1.49,16.32,4.32,3.13,1.78,6.88,4.16,11.16,7.1,1.74-3.35,3.42-6.23,5.12-8.79,2.7-4.04,12.48-17.24,25.18-17.24h.12c6.04.04,11.12.73,19.53,1.87,1.51.2,3.12.42,4.87.65.76.1,1.36.7,1.48,1.5.11.76-.26,1.47-.92,1.78-15.85,7.25-28.61,17.25-40.09,31.41,10.72,8.26,21.49,17.35,30.4,25.7.7.66,1.1,1.56,1.13,2.53.02.98-.36,1.95-1.04,2.66-.72.74-1.67,1.14-2.66,1.14h0c-.72,0-1.42-.21-2.02-.61-12.58-8.34-23.64-15.11-33.78-20.67-7.38,10.76-14.08,22.68-21.8,36.42-1.12,1.99-2.25,4-3.4,6.04-.63,1.12-1.75,1.78-3,1.78Z"/>
      <path class="cls-1" d="M157.2,3.59c-11.46-1.52-17.22-2.46-24.27-2.51-9.79-.06-18.82,8.4-24.39,16.76-1.92,2.89-3.79,6.16-5.62,9.78-4.57-3.17-8.7-5.82-12.09-7.74-7.95-4.51-17.45-5.44-26.08-2.44-6.21,2.16-11.67,4.74-17.97,7.75-.5.24-.33.98.22.98,15.18-.08,32.33,5.45,50.17,14.04-5.04,12.03-10.1,26.46-15.83,42.52-.55,1.54-2.47,7.24-1.03,8.03.02,0,.03.02.05.03,1.26.69,2.66.32,3.34-.89,9.17-16.27,17.07-30.76,25.8-43.35,11.52,6.27,23.2,13.55,34.71,21.19,1.03.69,2.41.54,3.28-.35.01-.01.02-.02.03-.03.99-1.02.99-2.67-.05-3.64-9.66-9.04-20.82-18.36-31.2-26.3,10.79-13.52,23.41-24.45,41.18-32.58.52-.24.35-1.14-.25-1.22Z"/>
      <g>
        <path class="cls-2" d="M92.98,117.79c-.09,0-.19,0-.28,0-1.05-.06-2.63-.54-4.16-2.45-1.3-1.63-1.48-3.35-1.62-4.72-.23-2.13.07-4.65.83-7.1,1.24-4,3.29-6.65,4.79-8.58,1.1-1.42,2.34-2.79,3.67-4.06.02-.02.04-.05.04-.09.09-.87.16-1.55.2-2.1-.13.23-.27.47-.42.72-.94,1.5-1.61,2.58-2.98,3.26-.73.37-1.51.55-2.31.55-.69,0-1.39-.14-2.07-.42-1.68-.68-2.21-1.86-2.56-2.64-.05-.11-.1-.22-.15-.32-.44-.88-.68-1.79-.71-2.71-.01-.31,0-.61.02-.89-.88.86-2.18,2.21-3.14,3.21-1.5,1.56-2.44,2.53-2.81,2.83l-.62.54s-.05.06-.05.1v.31c0,1.93.03,3.3.06,4.66l.04,1.71c.02.84.03,1.27.02,2.01-.02,2.27-.06,3.75-.45,5.61-.47,2.26-.78,3.75-2.14,4.61-.59.37-1.29.56-2.08.56-1.1,0-2.08-.38-2.4-.5-2.24-.86-3.25-2.73-3.57-3.49-.68-1.62-.47-3.08-.29-4.36.11-.75.58-2.06,1.35-3.67-.75.7-2.22,1.78-4.28,2.15-.54.09-1.11.19-1.69.19-.78,0-1.43-.17-1.99-.53-.77-.49-2.13-1.94-2.56-6.11-.41-4.09,1.07-10.58,1.92-12.99l.1-.3c1.28-3.66,3.68-10.47,6.3-14.64,3.68-5.86,6.73-6.27,7.74-6.4l.13-.02c.28-.04.76-.12,1.3-.12.82,0,1.55.17,2.16.49,1.85,1,2.32,2.73,2.55,3.56.04.13.05.2.06.28.25,2.07.02,3.57-.23,4.46-.19.7-.51,1.87-1.49,2.07-.09.02-.18.03-.27.03-.61,0-1.08-.4-1.25-.57-.39-.41-.32-1.04-.2-2.18.11-1.01.26-2.39.04-3.57-.07-.36-.45-.6-1.12-.72-.1-.02-.15-.03-.22-.03-.25,0-.63.22-1.05.61-1.38,1.28-2.04,2.71-2.15,2.98-1.65,3.96-2.24,6.39-2.24,6.41-.4,1.7-.55,2.16-.78,2.87-.27.85-.69,2.13-1.89,6.77-.01.06-1.45,5.67-.69,9.86.06.35.13.56.19.69.09-.08.23-.23.41-.5,1.81-2.56,3.24-5.37,3.4-5.68.76-1.94,1.77-4.38,2.84-6.14.34-.56,1.27-1.87,2.52-1.87.09,0,.19,0,.28.02,1.43.2,1.74,1.34,1.8,2.01.12,1.38.09,2.73.07,3.82-.01.56-.03,1.21,0,1.64.66-.42,2.24-1.67,5.73-4.87.33-.3.55-.51.63-.57.28-.23.41-.91.52-1.51.04-.22.09-.45.14-.66l.05-.2c.52-2.24.74-3.17,1.71-3.96.92-.74,1.99-.82,2.4-.82h.12c.51.03,1.75.19,2.54,1.18.7.88.46,2.31.2,3.01-.61,1.67-.73,2.48-.92,3.7-.11.71-.23,1.5-.48,2.65-.25,1.14-.27,2.33-.17,2.92.18-.18.44-.48.8-.99,1.27-1.79,1.74-3.25,2.45-5.45l.35-1.08c.48-1.44.58-1.64.84-2.14.27-.51.72-1.38,2.07-4.68.35-.85,1.51-2.19,2.22-2.56.2-.11.76-.22,1.32-.22.27,0,.53.03.77.08.53.12,1.02.64,1.05,1.13.09.9.03,3.6-.03,6.44-.04,2.05-.09,4.17-.08,5.68,0,.1.09.14.14.14.22-.13.38-.24.54-.36.63-.45,1.41-1.02,2.29-1.42.58-.26,1.45-.47,2.01-.57.07-.01.12-.07.12-.13.01-.61.05-1.26.11-2.04.14-2.17.38-2.99.5-3.29.32-.76,1.52-2.44,3-2.44,3,.14,4.06,1.68,4.43,2.59.24.59.13,1.68-.07,3.28-.04.29-.07.57-.1.82-.12,1.05-.21,1.94-.28,2.6.42-.41.9-.82,1.62-1.42l.09-.07c1.17-.97,1.8-1.49,2.61-1.88.62-.29,1.65-.78,2.58-.78.43,0,.81.1,1.13.3.05.03.1.06.15.09.5.28.95.61,1.36,1.8.07.21.1.41.12.61.11-.13.21-.27.3-.41,1.27-2.09,1.97-3.25,3.11-3.67.33-.12.7-.18,1.06-.18.64,0,1.21.2,1.6.57.63.6.66,1.45.51,2.71-.16,1.34-.42,2.29-.68,3.21-.23.82-.45,1.59-.61,2.66-.16,1.08-.09,1.84.19,2.04t0,0s.04.01.11.01c.26,0,.65-.14.9-.26.58-.27.75-.58,1.4-1.83.64-1.23.75-1.82.74-2.68,0-.81.56-1.82.82-2.05.32-.29.66-.43,1.02-.43.45,0,.82.24,1.05.41.74.56.55,1.56.4,2.36l-.05.24c-.22,1.23-.73,2.45-1.65,3.95-1.14,1.86-1.74,2.77-2.91,3.31-.66.3-1.3.46-1.93.46h0c-.47,0-.92-.09-1.32-.27-1.55-.66-2.04-2.34-2.4-3.56-.24-.83-.36-1.61-.42-2.3-.06.17-.35,1.05-.35,1.05-.42,1.26-.67,2.02-1.47,2.73-.35.31-.97.46-1.85.46h-.21c-.28-.01-.54-.1-.76-.25-1.04-.73-1.32-1.84-.98-3.84.08-.47.13-.81.16-1.06-.09.07-.17.14-.22.2-1.37,1.63-2.21,3.07-2.43,3.65-.57,1.45-.91,2.15-1.16,2.66-.3.61-.48.98-.83,2.21-.14.49-.27,1.02-.4,1.55-.42,1.74-.82,3.39-1.67,4.11-.48.4-1.54.58-2.38.58-.75,0-1.82-.13-2.64-.76-1.16-.89-1.81-2.39-1.74-4,.13-2.89.22-5.39.31-7.97l.08-2.3c0-.05-.02-.09-.04-.11-.01-.01-.04-.04-.08-.04l-.09.02c-.85.24-1.42.69-2.21,1.31-.24.19-.5.39-.79.6-.65.48-1.32.91-2.03,1.32-.04.03-.07.07-.08.11-.09,1.11-.22,2.59-.4,4.32-.37,3.66-.74,6.65-1.24,10.01-.92,6.2-1.56,8.62-3.56,10.71-.71.73-2.34,2.43-4.61,2.43ZM95.68,95.6c-1.52,1.56-2.48,3.16-3.15,4.37-.85,1.55-1.09,2.48-1.33,3.38-.05.18-.09.36-.15.55l-.17.59c-.38,1.34-.78,2.73-.74,4.3v.38c.03,1.32.06,2.96.98,4.07.28.34.93,1.12,1.67,1.12.8-.06,1.34-.89,1.57-1.25.98-1.53,1.3-3.87,1.26-5.54-.06-3.01.07-5.28.17-7.1.05-.88.09-1.68.11-2.43l.02-.61c.02-.57.04-1.47,0-2.09-.1.1-.2.2-.25.25ZM73.93,99.58s-.08.02-.11.07c-.7,1.19-1.3,2.45-1.49,3.12-.44,1.48-.5,2.86-.17,3.86.15.44.39,1.18.74,1.27.06.02.13.02.2.02.26,0,.55-.09.74-.18.35-.34.31-.97.22-2.14-.05-.64-.11-1.37-.1-2.23.01-1.28.05-2.39.08-3.28v-.37c.01-.06,0-.08-.02-.1-.03-.03-.07-.05-.12-.05ZM74.03,92.15c-.38.75-.86,1.62-1.26,2.33,0,0,0,0,0,0,.46-.51.98-1.09,1.23-1.73,0-.15.02-.36.03-.6Z"/>
        <path d="M136.54,84.44c-.45-.35-.8-.39-1.22-.01-.13.11-.6.95-.6,1.55,0,.94-.11,1.64-.82,2.98-.65,1.25-.91,1.75-1.7,2.12-.17.08-1.17.56-1.69.2-.25-.18-.77-.64-.46-2.67.35-2.37,1.01-3.42,1.29-5.85.14-1.16.09-1.77-.31-2.15-.47-.45-1.33-.48-1.97-.25-.91.34-1.54,1.36-2.77,3.39-.39.65-1.18,1.39-1.46,1.29-.25-.04.09-.92-.15-1.63-.42-1.24-.83-1.28-1.24-1.54-.82-.53-2.2.1-3.07.51-.74.35-1.32.83-2.46,1.78-1.04.87-1.57,1.31-2.09,1.91-.42.47-.56.72-.68.68-.19-.07-.2-.14.26-4.28.14-1.27.46-3.17.22-3.77-.3-.73-1.18-2.05-3.76-2.17-1.05-.05-2.14,1.29-2.45,2.03-.1.24-.31,1.01-.45,3.08-.05.76-.09,1.41-.1,2.01,0,.39-.29.71-.67.78-.59.1-1.37.3-1.85.52-1.05.47-1.94,1.2-2.65,1.69-.53.37-1.25,0-1.25-.65-.02-3.6.25-10.55.11-12.09-.01-.17-.27-.46-.53-.52-.75-.17-1.55.04-1.63.08-.58.3-1.62,1.52-1.91,2.22-2.57,6.3-1.92,3.83-2.9,6.78-.92,2.8-1.35,4.55-2.89,6.71-1.14,1.6-1.52,1.51-1.61,1.48-.61-.23-.52-2.52-.21-3.94.66-3.14.44-3.74,1.42-6.44.19-.54.41-1.73-.1-2.37-.64-.81-1.71-.92-2.04-.93-.16,0-1.21-.04-2.08.67-.82.66-.99,1.47-1.53,3.79-.22.93-.29,2.05-.88,2.53-.44.36-6.46,6.07-7.19,5.75-.54-.24-.04-3.19-.32-6.23-.12-1.34-1.07-1.38-1.25-1.41-.74-.13-1.56.62-2.12,1.54-.96,1.58-1.89,3.74-2.78,6.03,0,.02-.02.04-.03.06-.16.32-1.6,3.15-3.45,5.75-.21.31-.69.96-1.12.87-.12-.03-.47-.16-.67-1.32-.79-4.39.71-10.14.71-10.14,2.16-8.32,1.76-5.83,2.66-9.63,0,0,.58-2.44,2.28-6.52.06-.15.76-1.76,2.31-3.21,1.04-.96,1.58-.79,1.84-.74.83.15,1.52.51,1.66,1.25.43,2.28-.4,5.01-.02,5.41.03.03.46.47.93.37.57-.12.81-.96.98-1.6.22-.82.45-2.24.21-4.2,0-.04-.01-.08-.02-.12-.21-.78-.6-2.32-2.24-3.21-1.21-.65-2.66-.36-3.18-.29-1.18.16-3.9.74-7.26,6.1-2.66,4.23-5.07,11.2-6.34,14.81-.83,2.36-2.28,8.76-1.88,12.7.35,3.48,1.39,5.07,2.26,5.62.98.63,2.2.42,3.2.25,2.16-.38,3.59-1.64,4.06-2.1.27-.26,1.05-1.6,2.58-4.25,0,0,1.24-2.15,2.03-3.7.35-.68.68-1.37.68-1.37.15-.31.28-.51.49-.76.13.51.09,1.9.04,3.05,0,.09-.02.18-.05.26-.45,1.16-1.54,2.02-2.02,2.74-2.57,3.84-3.95,7.17-4.12,8.39-.19,1.35-.35,2.6.24,4.01.14.33,1.01,2.3,3.21,3.14.5.19,2.4.93,3.88,0,1.11-.7,1.38-1.96,1.84-4.19.38-1.83.41-3.31.43-5.48.02-1.12-.02-1.5-.06-3.7-.03-1.37-.06-2.74-.06-4.68v-.31c0-.23.1-.45.28-.6.22-.19.43-.37.65-.56.9-.72,6.76-7.14,7.08-6.96.19.1-.11,1.19-.07,2.3.04,1.11.41,1.97.64,2.44.39.78.71,1.97,2.37,2.64,1.4.57,2.74.43,3.83-.11,1.21-.61,1.82-1.6,2.71-3.02,1.05-1.68,1.31-2.82,1.54-2.77.19.04.31.89-.09,4.57-.02.19-.11.36-.24.49-.99.94-2.28,2.27-3.61,3.99-1.56,2.02-3.51,4.57-4.68,8.37-1.09,3.54-.88,6.09-.8,6.84.15,1.4.33,2.93,1.47,4.37.34.43,1.67,2.1,3.7,2.22,2.13.13,3.7-1.51,4.37-2.22,1.87-1.95,2.48-4.22,3.38-10.34.53-3.57.89-6.62,1.23-9.98.17-1.73.3-3.21.4-4.31.02-.27.18-.5.41-.63.86-.49,1.52-.94,1.96-1.27,1.23-.91,1.93-1.66,3.26-2.03,0,0,0,0,.01,0,.51-.15,1.02.27,1,.81-.13,3.45-.23,6.53-.4,10.28-.05,1.21.37,2.6,1.48,3.45,1.29.99,3.7.6,4.19.2.92-.78,1.3-3.4,1.85-5.33.66-2.33.77-1.75,2.02-4.93.25-.64,1.12-2.13,2.54-3.83.28-.33,1.09-.87,1.29-.77.15.08.24.39-.06,2.16-.31,1.8-.06,2.65.71,3.18.12.08.26.12.4.13.68.02,1.34-.07,1.6-.29.77-.68.94-1.44,1.47-3.02.46-1.34,1.09-3.19,1.36-3.14.29.05-.31,2.26.49,4.99.35,1.17.78,2.6,2.03,3.14,1.19.52,2.44-.06,2.71-.18.99-.45,1.52-1.26,2.62-3.05.98-1.61,1.39-2.73,1.56-3.72.14-.78.36-1.6-.1-1.96ZM74.37,108.19c-.07.07-.15.12-.24.16-.27.12-.87.33-1.38.19-.7-.18-.99-1.07-1.21-1.71-.62-1.86.1-4.03.16-4.24.23-.82.9-2.18,1.55-3.29.42-.71,1.51-.39,1.49.44-.03.96-.08,2.18-.1,3.64-.03,2.48.54,3.98-.28,4.81ZM96.57,98.06c-.05,2.31-.36,5.07-.28,9.5.04,1.93-.34,4.32-1.37,5.91-.31.47-.96,1.47-1.99,1.55-1.12.09-1.97-.95-2.31-1.36-1.16-1.41-1.1-3.45-1.13-4.85-.05-1.92.51-3.57.93-5.09.31-1.12.47-2.14,1.53-4.07.6-1.09,1.6-2.81,3.26-4.52.31-.32.89-.91,1.11-.83.4.15.28,2.25.25,3.76Z"/>
      </g>
      <g>
        <g>
          <path class="cls-2" d="M14.77,46.87c0-7.51,2.52-7.51,3.6-7.51h.16c4.15.14,5.06.88,5.85,1.54.43.35.92.76,1.69,1.04.19.07.39.11.59.11.91,0,1.66-.74,1.68-1.65.02-1.24.09-4.67.12-6.21,0-.45-.16-.88-.48-1.2-.31-.32-.75-.5-1.26-.5h0c-1.24.05-2.5.07-3.84.07-1.88,0-4-.05-6.47-.15-.23,0-.47-.01-.71-.01-10.78,0-15.69,7.72-15.69,14.89,0,10.44,5.35,15.96,15.47,15.96,3.48,0,6.09-.19,8.18-.34.91-.07,1.75-.13,2.54-.16.58-.03,1.11-.28,1.49-.71.38-.43.58-.99.54-1.56-.06-.9-.05-1.88.03-3,.04-.59-.14-1.14-.51-1.54-.35-.38-.85-.59-1.38-.59-.23,0-.46.04-.69.11-.65.21-1.74.32-3.26.32-1,0-2.06-.04-3-.09-.82-.03-1.58-.07-2.19-.07-1.21,0-1.57-.36-1.69-.48-.83-.84-.81-3.35-.77-6.25,0-.64.01-1.31.01-2.01Z"/>
          <path class="cls-2" d="M45.08,31.66c-10.47,0-16.72,5.9-16.72,15.77s6.25,15.81,16.72,15.81,16.78-5.91,16.78-15.81-6.27-15.77-16.78-15.77ZM45.08,56.38c-.86,0-1.99-.93-1.99-8.95s1.14-8.95,1.99-8.95c.96,0,2.05,1.02,2.05,8.95s-1.1,8.95-2.05,8.95Z"/>
          <path class="cls-2" d="M134.63,32.59h-12.25c-.65,0-1.21.34-1.5.9-.29.56-.24,1.27.1,1.73.2.36.5,2.16.5,4.48,0,.18.24,17.75.26,20.96,0,.92.75,1.66,1.67,1.66h11.07c.92,0,1.67-.74,1.67-1.66,0-1.43.03-5.87.06-10.75.04-6.34.08-13.43.09-15.65,0-.92-.75-1.67-1.67-1.67Z"/>
          <path class="cls-2" d="M154.32,31.66c-10.47,0-16.72,5.9-16.72,15.77s6.25,15.81,16.72,15.81,16.78-5.91,16.78-15.81-6.27-15.77-16.78-15.77ZM154.32,56.38c-.86,0-1.99-.93-1.99-8.95s1.14-8.95,1.99-8.95c.96,0,2.05,1.02,2.05,8.95s-1.1,8.95-2.05,8.95Z"/>
          <path class="cls-2" d="M89.9,32.48h-6.12l-.85.02-.37.73c-.35.7-.07,1.35.69,2.39.03,1.39.01,4.93,0,7.87l-5.44-10.02c-.28-.52-.83-.86-1.41-.87-1.88-.06-14.36-.12-14.89-.12h-.63s-.4.49-.4.49c-.56.68-.53,1.59.06,2.3.06.07,1.7,2.18,1.7,2.18q-.65,23.86-.09,24.43l.39.4,6.7.02h.56s.39-.4.39-.4c.47-.48.55-.56.37-10.49l5.67,10.03c.3.53.85.85,1.46.85,1.44,0,10.3-.04,12.15-.05.91,0,1.66-.75,1.66-1.66,0,0,.06-23.58.07-26.43,0-.45-.17-.86-.49-1.18-.32-.32-.74-.49-1.19-.49Z"/>
          <path class="cls-2" d="M201.59,34.25c0-.92-.75-1.67-1.67-1.67h-6.22l-.85.02-.37.74c-.35.7-.07,1.36.69,2.39.03,1.38.01,4.85,0,7.87l-5.44-10.02c-.28-.51-.82-.85-1.41-.87-1.88-.06-14.36-.12-14.89-.12h-.63s-.4.49-.4.49c-.55.68-.53,1.59.06,2.3.04.05,1.7,2.18,1.7,2.18q-.65,23.86-.09,24.43l.39.4,6.7.02h.56s.39-.4.39-.4c.46-.47.55-.56.37-10.49l5.67,10.03c.3.52.85.85,1.45.85,1.45,0,10.46-.04,12.33-.05.92,0,1.66-.75,1.66-1.67v-26.43Z"/>
        </g>
        <g>
          <path d="M26.76,33.81c-2.91.12-6.06.1-10.42-.08-6.59-.27-15.02,3.57-15.02,13.55,0,9.43,4.52,14.63,14.14,14.63,4.94,0,8.01-.38,10.66-.51.45-.02.8-.41.77-.86-.06-.99-.05-2.03.03-3.18.04-.53-.34-.83-.85-.66-2.13.7-6.58.24-8.86.24-4.36,0-3.78-3.8-3.78-10.07s1.65-8.95,5.12-8.83c6.5.21,6.02,1.94,7.96,2.66.22.08.47-.08.47-.32.02-1.24.09-4.67.12-6.22,0-.2-.16-.36-.36-.35Z"/>
          <path d="M45.08,32.99c-8.23,0-15.39,4-15.39,14.44s7.16,14.49,15.39,14.49,15.45-4,15.45-14.49-7.16-14.44-15.45-14.44ZM45.08,57.71c-2.3,0-3.32-2.53-3.32-10.28s1.01-10.28,3.32-10.28,3.38,2.53,3.38,10.28-.98,10.28-3.38,10.28Z"/>
          <path d="M134.63,33.91h-12.25c-.4,0-.4.42-.31.55.52.72.74,3.33.74,5.22,0,0,.24,17.72.26,20.97,0,.19.16.34.34.34h11.07c.19,0,.34-.15.34-.34.01-3.28.14-22.46.15-26.4,0-.19-.15-.34-.34-.34Z"/>
          <path d="M154.32,32.99c-8.23,0-15.39,4-15.39,14.44s7.16,14.49,15.39,14.49,15.45-4,15.45-14.49-7.16-14.44-15.45-14.44ZM154.32,57.71c-2.3,0-3.32-2.53-3.32-10.28s1.01-10.28,3.32-10.28,3.38,2.53,3.38,10.28-.98,10.28-3.38,10.28Z"/>
          <path d="M200.27,34.25c0-.19-.15-.34-.34-.34h-6.22c-.19,0,.49.96.72,1.27.04.06.06.12.07.19.05,1.6,0,8.98-.03,12.04,0,.36-.48.47-.65.16l-7.26-13.36c-.06-.11-.17-.18-.29-.18-1.88-.06-14.85-.12-14.85-.12-.14.17-.14.38.07.63.03.04,1.57,2.01,1.93,2.47.05.06.07.14.07.22-.05,1.83-.64,23.83-.47,23.83l6.14.02c.17,0,0-9.76-.07-13.42,0-.36.47-.48.65-.17l7.58,13.41c.06.11.17.18.3.18,1.45,0,10.45-.04,12.32-.05.19,0,.34-.15.34-.34,0-2.87,0-23.12,0-26.43Z"/>
          <path d="M89.9,33.81h-6.12c-.19,0,.49.96.72,1.27.04.06.06.12.07.19.05,1.6,0,8.98-.03,12.04,0,.36-.48.47-.65.16l-7.26-13.36c-.06-.11-.17-.18-.29-.18-1.88-.06-14.85-.12-14.85-.12-.14.17-.14.38.07.63.03.04,1.57,2.01,1.93,2.47.05.06.07.14.07.22-.05,1.83-.64,23.83-.47,23.83l6.14.02c.17,0,0-9.76-.07-13.42,0-.36.47-.48.65-.17l7.58,13.41c.06.11.17.18.3.18,1.44,0,10.3-.04,12.15-.05.19,0,.34-.15.34-.34,0-2.9.06-23.48.07-26.43,0-.19-.15-.34-.34-.34Z"/>
        </g>
      </g>
    </g>
  </g>
</svg>